<svg width="82" height="81" viewBox="0 0 82 81" fill="none" xmlns="http://www.w3.org/2000/svg">
<path d="M81.9894 20.8566L76.013 19.3589L77.1716 20.821L73.6248 21.3301C73.4238 21.0756 73.0396 20.9513 72.5903 20.9157C72.5726 20.8743 72.5549 20.8329 72.5431 20.7974C72.0347 19.6431 71.4081 18.5717 70.746 17.5476C69.41 15.4995 67.8435 13.7059 66.2711 11.9893C65.4849 11.131 64.6928 10.2964 63.9302 9.44398C63.1676 8.59751 62.4287 7.73328 61.8021 6.81577C61.477 6.35998 61.211 5.87459 60.9627 5.38328L60.809 5.00444L60.7322 4.81502L60.6731 4.61968L60.5548 4.22308L60.4839 3.82057C60.2947 2.7314 60.6139 1.58304 61.2051 0.594502C60.8563 1.05029 60.5135 1.53568 60.3184 2.09803C60.1942 2.37032 60.1351 2.66037 60.0642 2.95634C60.0287 3.10432 60.0287 3.2523 60.011 3.40621C59.9933 3.55419 59.9814 3.7081 59.9873 3.862L59.9992 4.31779L60.0642 4.76767C60.0642 4.80318 60.076 4.83278 60.0819 4.8683L48.8267 20.8151C48.6021 20.827 48.3834 20.8388 48.1706 20.8566C48.7676 20.4304 48.342 19.3649 48.9508 19.1518C49.5834 18.9327 49.1577 18.181 49.1577 18.181C49.5479 18.0744 48.9568 16.9794 48.9568 16.9794C49.8375 16.9024 50.943 15.9316 50.3932 15.76C49.8435 15.5942 48.608 13.5935 49.0927 12.0544C49.5774 10.5154 48.7558 9.19536 48.7558 9.19536C50.7775 10.1129 51.1676 8.20683 51.1676 8.20683C49.4474 9.03554 48.7026 8.01741 48.7026 8.01741C50.2809 7.89902 50.2218 6.88089 49.944 5.71477C49.6661 4.54865 48.2592 4.74399 48.2592 4.74399C48.2592 4.74399 48.2001 3.72586 47.4907 2.66629C46.7814 1.60672 45.6523 2.37032 45.6523 2.37032C45.6523 2.37032 45.4868 0.724728 43.7193 0.150548C41.9518 -0.423632 41.1952 0.961504 41.1952 0.961504C41.1952 0.961504 39.0848 -0.73144 36.6139 0.375485C34.1429 1.48241 34.3557 3.42397 34.3557 3.42397C30.9626 3.128 31.0158 5.89827 31.0158 5.89827C29.9931 7.02295 31.3114 8.09436 31.3114 8.09436C31.3114 8.09436 29.6739 7.83983 29.4493 10.1247C29.2247 12.4096 30.6434 12.6641 30.6434 12.6641C29.5084 14.7241 31.5064 15.5232 31.5064 15.5232C31.2759 18.6427 33.8533 18.2935 33.8533 18.2935C34.2434 18.9446 33.8946 19.8799 33.7646 20.1817C30.9508 18.8025 27.1025 15.4581 25.4355 10.835C23.8453 6.43101 18.5488 9.32559 12.9803 17.0267C11.8571 18.5776 13.5537 20.531 14.9842 19.5602C14.3694 20.4126 13.7547 21.3538 13.134 22.3778C12.1763 23.9701 14.1034 25.7341 15.3566 24.4082L16.8818 22.7981L16.066 24.2543C15.2148 25.7696 16.9291 27.4389 18.2059 26.3379L19.6187 25.1244L19.1695 26.2846C18.5429 27.9125 20.4404 29.2798 21.5636 28.0072L22.0424 27.4626C21.8828 29.1082 23.8394 29.8895 24.6966 28.5221L24.9981 28.0368L24.933 29.1082C24.8621 30.2329 25.7902 30.9432 26.6473 30.7834C26.6119 31.0675 26.6119 31.3516 26.6591 31.6357C26.7951 32.4289 27.2503 33.1038 27.9183 33.6187C27.8591 33.8555 27.8119 34.0864 27.7823 34.3054C27.1261 38.9758 23.402 39.3191 21.735 42.0302C20.7123 43.6876 20.0739 45.8541 21.0729 48.0561C19.7606 49.6366 18.4246 51.7853 18.5369 53.8689C18.5369 53.8689 18.2296 52.3121 15.6345 51.1519C13.0394 49.9858 11.13 51.8978 9.7113 50.0805C8.29849 48.2633 6.53099 48.654 5.68567 50.2404C4.84034 51.8268 0.53688 53.1468 0.773334 54.5733C0.773334 54.5733 -0.444404 55.1594 0.176288 55.923C0.79698 56.6866 1.76053 55.8164 1.76053 55.8164C1.76053 55.8164 1.796 57.5745 3.12014 57.314C4.44428 57.0536 6.4305 54.236 8.87189 55.2245C11.3192 56.213 16.1428 63.7484 19.997 63.5175C23.3961 63.3163 29.5557 56.5267 31.0513 53.8275C32.0503 56.0295 34.1193 59.7351 37.0986 60.6822C37.0986 60.6822 35.3311 60.3803 33.0611 62.6592C30.7912 64.9382 32.0385 67.7321 29.5498 68.5017C27.0611 69.2712 26.7655 71.2956 28.0956 72.8287C29.4316 74.3618 29.0946 79.4466 30.6907 79.7781C30.6907 79.7781 30.8207 81.3053 31.8789 80.9501C32.937 80.6009 32.3991 79.2276 32.3991 79.2276C32.3991 79.2276 34.273 79.8965 34.5331 78.3929C34.7932 76.8894 32.6119 73.6515 34.6395 71.4554C36.6671 69.2593 46.5686 67.1876 47.875 63.0144C49.1814 58.8412 42.9804 47.4997 41.337 46.7183C46.208 43.4212 46.74 34.7612 46.74 34.7612C47.7213 33.8674 48.3183 32.6243 48.6494 31.2569L67.6366 48.429C67.6366 48.648 67.6366 48.8611 67.6366 49.0802L67.678 49.536C67.6898 49.6839 67.7076 49.8378 67.743 49.9858L67.8317 50.4298L67.9677 50.8678C68.009 51.0158 68.0741 51.152 68.1391 51.2881C68.2041 51.4242 68.2573 51.5663 68.3401 51.6906C68.5056 51.9451 68.6534 52.1997 68.8603 52.4187C69.2327 52.8804 69.7174 53.2237 70.1962 53.5434C69.3095 52.8035 68.6357 51.8208 68.4524 50.7376L68.3874 50.3351L68.3696 49.9207V49.5123L68.3933 49.1038C68.4642 48.5533 68.5529 48.0088 68.7125 47.4701C69.0022 46.3928 69.4159 45.3391 69.8534 44.2855C70.2967 43.2318 70.7637 42.1782 71.2248 41.1068C72.1411 38.9699 73.0278 36.756 73.613 34.3823C73.9027 33.1985 74.1391 31.9732 74.2337 30.7182C74.3224 29.6528 74.3283 28.5695 74.2573 27.4744C75.0436 26.3438 74.5115 24.1951 74.0918 22.7212L77.3904 22.2476L76.6928 23.982L82.0012 20.8625L81.9894 20.8566ZM34.7932 17.4943C36.2592 18.7019 35.4198 20.6198 35.4198 20.6198C35.4198 20.6198 35.3784 20.673 35.3134 20.7618C34.8818 20.6553 34.3912 20.4777 33.8592 20.2232C35.3902 19.7023 34.7932 17.4943 34.7932 17.4943ZM60.1469 5.24714L60.2474 5.65557C60.4307 6.22975 60.6494 6.79802 60.9213 7.33076C61.4474 8.40809 62.0859 9.40846 62.7302 10.3792C63.3805 11.35 64.0484 12.303 64.6928 13.2501C65.9874 15.1443 67.1992 17.0504 68.1154 19.0334C68.3696 19.5839 68.6002 20.1403 68.8071 20.6967C67.3647 21.1229 66.5076 22.0463 66.2179 22.4133L65.5263 22.514C64.1194 22.2417 62.1805 20.9927 60.3598 20.679C58.273 20.3179 54.4484 21.6853 54.4484 21.6853C52.5449 20.9749 50.7065 20.7855 49.1696 20.8092L60.1469 5.25898V5.24714ZM70.7164 30.6413C70.7874 31.6949 70.7401 32.7723 70.6396 33.8555C70.4327 36.0279 69.9125 38.2299 69.3214 40.4438C69.0258 41.5507 68.7066 42.6695 68.4169 43.8001C68.1273 44.9366 67.8613 46.0909 67.7135 47.2748C67.678 47.5293 67.6603 47.7897 67.6425 48.0502L48.7203 30.9313C48.7617 30.736 48.7971 30.5407 48.8326 30.3394C51.6287 30.3572 54.744 29.2621 55.8435 28.83C57.1854 28.3031 57.9065 29.3745 59.9814 29.3094C62.0563 29.2443 66.6553 27.1666 66.6553 27.1666C67.5598 27.871 68.9135 28.3386 70.4327 28.4215C70.5687 29.1437 70.6632 29.8836 70.7105 30.6294L70.7164 30.6413Z" fill="#FF5069"/>
</svg>
